<svg xmlns="http://www.w3.org/2000/svg" xmlns:xlink="http://www.w3.org/1999/xlink" version="1.1" width="256" height="256" viewBox="0 0 256 256" xml:space="preserve">

<defs>
</defs>
<g style="stroke: none; stroke-width: 0; stroke-dasharray: none; stroke-linecap: butt; stroke-linejoin: miter; stroke-miterlimit: 10; fill: none; fill-rule: nonzero; opacity: 1;" transform="translate(1.4065934065934016 1.4065934065934016) scale(2.81 2.81)" >
	<path d="M 61.521 42.449 c -3.438 0 -6.235 2.797 -6.235 6.235 v 0.813 c 0 3.438 2.797 6.235 6.235 6.235 h 12.193 V 42.449 H 61.521 z M 62.097 51.743 c -1.465 0 -2.652 -1.187 -2.652 -2.652 c 0 -1.465 1.187 -2.652 2.652 -2.652 c 1.465 0 2.652 1.187 2.652 2.652 C 64.749 50.555 63.561 51.743 62.097 51.743 z" style="stroke: none; stroke-width: 1; stroke-dasharray: none; stroke-linecap: butt; stroke-linejoin: miter; stroke-miterlimit: 10; fill: rgb(255,255,255); fill-rule: nonzero; opacity: 1;" transform=" matrix(1 0 0 1 0 0) " stroke-linecap="round" />
	<path d="M 61.521 39.123 h 12.193 V 12.087 c 0 -1.832 -1.485 -3.317 -3.317 -3.317 h -36.68 V 0.816 c 0 -0.722 -0.87 -1.087 -1.385 -0.581 l -5.322 4.319 c -0.182 0.148 -0.443 0.148 -0.625 0 l -5.323 -4.319 c -0.515 -0.506 -1.385 -0.142 -1.385 0.581 v 7.953 h -4.33 c -1.832 0 -3.317 1.485 -3.317 3.317 v 74.596 c 0 1.832 1.485 3.317 3.317 3.317 h 55.05 c 1.832 0 3.317 -1.485 3.317 -3.317 V 59.059 H 61.521 c -5.272 0 -9.562 -4.289 -9.562 -9.562 v -0.813 C 51.959 43.413 56.248 39.123 61.521 39.123 z M 49.533 35.828 L 32.107 59.483 c -0.261 0.355 -0.666 0.577 -1.106 0.607 c -0.034 0.002 -0.067 0.003 -0.101 0.003 c -0.404 0 -0.793 -0.163 -1.077 -0.456 L 19.431 48.919 c -0.577 -0.595 -0.562 -1.544 0.033 -2.121 c 0.594 -0.577 1.543 -0.563 2.121 0.033 l 9.157 9.446 l 16.375 -22.229 c 0.492 -0.668 1.433 -0.809 2.098 -0.318 C 49.882 34.222 50.024 35.161 49.533 35.828 z" style="stroke: none; stroke-width: 1; stroke-dasharray: none; stroke-linecap: butt; stroke-linejoin: miter; stroke-miterlimit: 10; fill: rgb(255,255,255); fill-rule: nonzero; opacity: 1;" transform=" matrix(1 0 0 1 0 0) " stroke-linecap="round" />
</g>
</svg>