<svg xmlns="http://www.w3.org/2000/svg" xmlns:xlink="http://www.w3.org/1999/xlink" version="1.1" width="256" height="256" viewBox="0 0 256 256" xml:space="preserve">

<defs>
</defs>
<g style="stroke: none; stroke-width: 0; stroke-dasharray: none; stroke-linecap: butt; stroke-linejoin: miter; stroke-miterlimit: 10; fill: none; fill-rule: nonzero; opacity: 1;" transform="translate(1.40659340659343 1.4065934065933732) scale(2.81 2.81)" >
	<path d="M 54.113 45.307 c -2.738 1.418 -5.832 2.234 -9.113 2.234 s -6.375 -0.816 -9.113 -2.234 c -12.236 1.826 -21.7 12.444 -21.7 25.167 v 16.741 c 0 1.532 1.254 2.786 2.786 2.786 h 56.054 c 1.532 0 2.786 -1.254 2.786 -2.786 V 70.474 C 75.813 57.751 66.348 47.133 54.113 45.307 z" style="stroke: none; stroke-width: 1; stroke-dasharray: none; stroke-linecap: butt; stroke-linejoin: miter; stroke-miterlimit: 10; fill: rgb(0,0,0); fill-rule: nonzero; opacity: 1;" transform=" matrix(1 0 0 1 0 0) " stroke-linecap="round" />
	<path d="M 64.643 15.053 C 62.216 6.384 54.264 0 44.831 0 S 27.445 6.384 25.019 15.053 c -1.695 0.217 -3.022 1.659 -3.022 3.411 v 9.872 c 0 1.9 1.555 3.455 3.455 3.455 s 3.455 -1.555 3.455 -3.455 v -9.872 c 0 -1.189 -0.609 -2.243 -1.531 -2.865 c 2.176 -7.596 9.169 -13.177 17.454 -13.177 c 8.286 0 15.279 5.581 17.454 13.177 c -0.921 0.622 -1.53 1.676 -1.53 2.865 v 9.872 c 0 1.9 1.555 3.455 3.455 3.455 s 3.455 -1.555 3.455 -3.455 v -9.872 C 67.665 16.712 66.339 15.27 64.643 15.053 z" style="stroke: none; stroke-width: 1; stroke-dasharray: none; stroke-linecap: butt; stroke-linejoin: miter; stroke-miterlimit: 10; fill: rgb(0,0,0); fill-rule: nonzero; opacity: 1;" transform=" matrix(1 0 0 1 0 0) " stroke-linecap="round" />
	<path d="M 56.255 28.337 v -9.872 c 0 -1.313 0.323 -2.582 0.918 -3.708 c -2.231 -4.703 -7.034 -7.834 -12.342 -7.834 s -10.11 3.131 -12.342 7.835 c 0.595 1.126 0.918 2.395 0.918 3.708 v 9.872 c 0 2.391 -1.065 4.533 -2.74 5.993 c 2.703 5.183 8.111 8.754 14.333 8.754 c 6.141 0 11.494 -3.477 14.232 -8.55 C 57.419 33.073 56.255 30.84 56.255 28.337 z" style="stroke: none; stroke-width: 1; stroke-dasharray: none; stroke-linecap: butt; stroke-linejoin: miter; stroke-miterlimit: 10; fill: rgb(0,0,0); fill-rule: nonzero; opacity: 1;" transform=" matrix(1 0 0 1 0 0) " stroke-linecap="round" />
</g>
</svg>